<?xml version="1.0" encoding="UTF-8" standalone="no"?>
<!DOCTYPE svg PUBLIC "-//W3C//DTD SVG 1.1//EN" "http://www.w3.org/Graphics/SVG/1.1/DTD/svg11.dtd">
<svg width="100%" height="100%" viewBox="0 0 2461 1609" version="1.1" xmlns="http://www.w3.org/2000/svg" xmlns:xlink="http://www.w3.org/1999/xlink" xml:space="preserve" xmlns:serif="http://www.serif.com/" style="fill-rule:evenodd;clip-rule:evenodd;stroke-linejoin:round;stroke-miterlimit:2;">
    <rect id="Mesa-de-trabajo1" serif:id="Mesa de trabajo1" x="0" y="0" width="2460.868" height="1608.394" style="fill:none;"/>
    <g id="Mesa-de-trabajo11" serif:id="Mesa de trabajo1">
        <g transform="matrix(1,0,0,1,-1019.987816,-1304.680291)">
            <path d="M2586.127,1647.376L2586.127,2020.335C2586.127,2041.242 2573.902,2060.215 2554.862,2068.854C2547.813,2072.054 2540.309,2073.615 2532.858,2073.615C2520.19,2073.615 2507.667,2069.102 2497.762,2060.433L2159.888,1764.792L2159.888,2020.335C2159.888,2049.761 2136.035,2073.615 2106.609,2073.615C2077.182,2073.615 2053.329,2049.761 2053.329,2020.335L2053.329,1647.376C2053.329,1626.469 2065.554,1607.496 2084.593,1598.857C2103.63,1590.215 2125.963,1593.51 2141.693,1607.278L2479.567,1902.92L2479.567,1647.376C2479.567,1617.95 2503.421,1594.097 2532.847,1594.097C2562.273,1594.097 2586.127,1617.95 2586.127,1647.376ZM3225.484,1753.936L3225.484,2020.335C3225.484,2049.761 3201.631,2073.615 3172.205,2073.615C3142.778,2073.615 3118.925,2049.761 3118.925,2020.335L3118.925,1913.775L2799.246,1913.775L2799.246,2020.335C2799.246,2049.761 2775.393,2073.615 2745.966,2073.615C2716.54,2073.615 2692.686,2049.761 2692.686,2020.335L2692.686,1753.936C2692.686,1747.388 2693.6,1712.892 2711.63,1676.829C2738.307,1623.478 2788.342,1594.097 2852.526,1594.097L3065.645,1594.097C3072.193,1594.097 3106.689,1595.01 3142.751,1613.04C3196.103,1639.717 3225.484,1689.752 3225.484,1753.936ZM2799.246,1807.216L3118.925,1807.216L3118.925,1753.936C3118.925,1725.285 3107.88,1715.34 3097.077,1709.389C3084.852,1702.657 3070.102,1700.816 3065.192,1700.656L2852.526,1700.656C2822.854,1700.656 2812.832,1712.7 2806.942,1724.483C2799.941,1738.485 2799.246,1753.795 2799.246,1753.936L2799.246,1807.216ZM2745.966,2180.174C2775.393,2180.174 2799.246,2204.027 2799.246,2233.454L2799.246,2499.4C2799.406,2504.31 2801.247,2519.06 2807.979,2531.285C2813.93,2542.088 2823.875,2553.133 2852.526,2553.133L3065.192,2553.133C3070.102,2552.973 3084.852,2551.132 3097.077,2544.4C3107.88,2538.449 3118.925,2528.504 3118.925,2499.853L3118.925,2233.454C3118.925,2204.027 3142.778,2180.174 3172.205,2180.174C3201.631,2180.174 3225.484,2204.027 3225.484,2233.454L3225.484,2499.853C3225.484,2564.036 3196.103,2614.071 3142.751,2640.749C3106.689,2658.778 3072.193,2659.692 3065.645,2659.692L2852.526,2659.692C2788.342,2659.692 2738.307,2630.311 2711.63,2576.959C2693.6,2540.897 2692.686,2506.401 2692.686,2499.853L2692.686,2233.454C2692.686,2204.027 2716.54,2180.174 2745.966,2180.174ZM2586.128,2340.013C2586.128,2404.196 2556.744,2454.231 2503.395,2480.908C2492.115,2486.548 2480.991,2490.512 2470.827,2493.299L2564.816,2563.788C2588.355,2581.442 2593.126,2614.838 2575.472,2638.379C2565.002,2652.336 2549.005,2659.694 2532.805,2659.694C2521.68,2659.694 2510.465,2656.226 2500.88,2649.035L2301.968,2499.852L2159.889,2499.852L2159.889,2606.412C2159.889,2635.838 2136.036,2659.691 2106.609,2659.691C2077.183,2659.691 2053.33,2635.838 2053.33,2606.412L2053.33,2233.453C2053.33,2204.027 2077.183,2180.173 2106.609,2180.173L2426.288,2180.173C2432.836,2180.173 2467.332,2181.087 2503.395,2199.12C2556.744,2225.794 2586.128,2275.832 2586.128,2340.013ZM2457.721,2384.56C2468.523,2378.611 2479.568,2368.664 2479.568,2340.013C2479.568,2311.361 2468.523,2301.417 2457.721,2295.468C2445.496,2288.733 2430.745,2286.893 2425.835,2286.733L2159.889,2286.733L2159.889,2393.292L2425.835,2393.292C2430.745,2393.135 2445.496,2391.292 2457.721,2384.56ZM3049.585,1361.103C3050.614,1391.377 3026.379,1416.24 2996.338,1416.24L1983.92,1416.24C1925.126,1416.24 1877.462,1463.901 1877.462,1522.696L1877.462,2695.296C1877.462,2753.957 1925.019,2801.515 1983.683,2801.515L3262.737,2801.515C3307.513,2801.515 3336.446,2786.607 3353.8,2754.604C3368.223,2728.002 3369.248,2699.26 3369.296,2697.414L3369.296,1522.799C3369.296,1478.164 3354.045,1449.271 3321.304,1431.872C3293.9,1417.308 3264.343,1416.288 3262.433,1416.24L3209.457,1416.24C3179.418,1416.24 3155.181,1391.377 3156.212,1361.103C3157.192,1332.18 3181.882,1309.68 3210.821,1309.68L3262.737,1309.68C3268.115,1309.68 3316.712,1310.397 3366.483,1335.284C3437.015,1370.55 3475.856,1437.142 3475.856,1522.799L3475.856,2697.744C3475.856,2703.072 3475.134,2751.205 3450.079,2800.433C3414.76,2869.846 3348.224,2908.074 3262.737,2908.074L1238.107,2908.074C1232.728,2908.074 1184.132,2907.355 1134.358,2882.468C1063.829,2847.202 1024.988,2780.61 1024.988,2694.955L1024.988,1522.799C1024.988,1517.421 1025.704,1468.824 1050.591,1419.05C1085.857,1348.524 1152.449,1309.68 1238.107,1309.68L2994.974,1309.68C3023.915,1309.68 3048.605,1332.18 3049.585,1361.103ZM1210.037,1953.351C1218.783,1953.351 1227.347,1949.048 1232.444,1941.155C1294.589,1844.897 1335.404,1738.281 1359.588,1661.654C1359.598,1661.617 1359.633,1661.593 1359.67,1661.593L1456.232,1658.516C1469.619,1658.09 1481.308,1648.215 1482.752,1634.9C1484.54,1618.399 1471.443,1604.72 1455.427,1605.234L1375.526,1607.778C1375.465,1607.781 1375.42,1607.719 1375.436,1607.661C1383.548,1577.725 1387.544,1558.683 1388.06,1556.179C1391.026,1541.772 1381.752,1527.69 1367.345,1524.723C1352.941,1521.75 1338.851,1531.023 1335.876,1545.43C1335.732,1546.128 1330.534,1570.794 1319.436,1609.501C1319.425,1609.539 1319.391,1609.568 1319.351,1609.568L1218.769,1612.773C1205.489,1613.196 1193.864,1622.92 1192.3,1636.117C1190.368,1652.442 1203.057,1666.066 1218.732,1666.066C1219.017,1666.066 1219.305,1666.063 1219.595,1666.053L1302.65,1663.407C1302.714,1663.407 1302.762,1663.469 1302.741,1663.527C1279.047,1735.055 1241.778,1828.252 1188.168,1911.505C1180.28,1923.754 1182.995,1940.486 1195.03,1948.702C1199.642,1951.851 1204.871,1953.351 1210.037,1953.351ZM1547.788,1596.496C1542.849,1610.343 1550.071,1625.581 1563.916,1630.536C1564.574,1630.771 1630.484,1654.672 1683.321,1700.202C1688.353,1704.537 1694.539,1706.66 1700.698,1706.66C1708.36,1706.66 1715.979,1703.372 1721.264,1696.966C1730.567,1685.694 1728.505,1668.754 1717.407,1659.241C1656.95,1607.424 1584.844,1581.431 1581.794,1580.344C1567.941,1575.418 1552.732,1582.651 1547.788,1596.496ZM1660.849,2617.788C1694.906,2575.761 1694.906,2530.444 1694.906,2515.552C1694.906,2478.211 1681.514,2445.867 1656.179,2422.011C1621.678,2389.521 1567.527,2374.51 1499.568,2378.604C1478.677,2379.859 1456.087,2384.684 1433.147,2391.698C1433.054,2391.73 1432.987,2391.61 1433.062,2391.543L1607.958,2245.621C1616.765,2238.273 1619.882,2226.12 1615.697,2215.443C1611.512,2204.768 1600.979,2197.973 1589.515,2198.561L1283.463,2214.431C1268.771,2215.193 1257.478,2227.724 1258.24,2242.416C1259.002,2257.11 1271.544,2268.438 1286.223,2267.639L1512.188,2255.922C1512.276,2255.917 1512.321,2256.029 1512.254,2256.085L1224.543,2496.129C1213.65,2505.216 1211.791,2521.248 1220.31,2532.588C1228.833,2543.926 1244.75,2546.601 1256.503,2538.673C1258.003,2537.661 1407.493,2437.518 1502.768,2431.786C1554.929,2428.658 1596.45,2438.952 1619.653,2460.799C1634.233,2474.529 1641.626,2492.951 1641.626,2515.552C1641.626,2572.545 1608.904,2604.577 1564.514,2621.813C1564.341,2621.094 1564.138,2620.375 1563.901,2619.658C1543.841,2558.634 1504.92,2529.479 1475.8,2515.765C1444.581,2501.063 1418.053,2500.636 1415.133,2500.636C1382.166,2500.636 1355.724,2510.392 1336.54,2529.629C1308.915,2557.331 1308.211,2593.53 1308.225,2597.491C1308.225,2623.185 1317.573,2645.414 1335.254,2661.765C1365.644,2689.87 1412.581,2693.587 1435.289,2693.587C1440.569,2693.587 1444.544,2693.387 1446.691,2693.246C1446.691,2693.243 1446.694,2693.243 1446.694,2693.243C1548.359,2693.086 1620.404,2667.701 1660.849,2617.788ZM1414.916,2553.917C1417.828,2553.965 1486.189,2556.032 1512.874,2635.057C1512.893,2635.113 1512.858,2635.174 1512.799,2635.182C1490.558,2638.675 1467.517,2639.975 1445.518,2639.964C1444.894,2639.993 1444.287,2640.017 1443.661,2640.044C1430.903,2641.054 1390.195,2640.001 1371.429,2622.648C1364.7,2616.428 1361.546,2608.497 1361.503,2597.633C1361.754,2587.249 1366.4,2553.917 1414.916,2553.917ZM1727.717,1989.309C1734.483,1977.689 1730.855,1962.739 1720.263,1954.456C1680.62,1923.447 1642.594,1899.541 1605.796,1882.576C1605.767,1882.563 1605.746,1882.534 1605.746,1882.499L1598.153,1750.786C1597.306,1736.097 1584.714,1724.866 1570.024,1725.721C1555.335,1726.571 1544.114,1739.163 1544.961,1753.85L1551.201,1862.112C1551.206,1862.173 1551.147,1862.221 1551.086,1862.202C1523.679,1854.503 1496.874,1850.878 1470.495,1851.179C1386.065,1852.22 1340.511,1905.1 1340.511,1954.331C1340.511,1980.752 1350.895,2005.08 1369.751,2022.833C1393.215,2044.925 1428.044,2056.074 1473.447,2056.074C1479.353,2056.074 1485.437,2055.888 1491.7,2055.507C1539.668,2052.611 1576.327,2026.722 1594.922,1982.601C1601.105,1967.936 1604.342,1953.652 1606.028,1942.359C1606.039,1942.295 1606.108,1942.263 1606.164,1942.292C1632.434,1956.47 1659.713,1974.681 1688.172,1996.992C1700.733,2006.846 1719.381,2003.62 1727.717,1989.309ZM1473.718,1904.438C1499.702,1904.438 1526.545,1909.302 1554.487,1919.135L1554.567,1920.499C1554.514,1923.733 1553.829,1943.705 1545.283,1963.171C1534.438,1987.863 1515.86,2000.672 1488.49,2002.326C1449.896,2004.644 1421.453,1998.333 1406.274,1984.04C1395.956,1974.325 1393.79,1962.523 1393.79,1954.332C1393.79,1934.016 1417.79,1905.112 1471.152,1904.454C1472.008,1904.443 1472.86,1904.438 1473.718,1904.438Z" style="fill:rgb(239,35,0);"/>
        </g>
    </g>
</svg>
